<svg xmlns="http://www.w3.org/2000/svg" width="1269" height="952"><path fill="#fdfdfd" d="M0 0h1269v952H0z"/><path fill="#1077cd" d="M732.555 204.003c3.109 1.268 6.259 2.399 9.418 3.532 8.564 3.076 16.85 6.456 25.027 10.465l3.719 1.766c22.696 10.906 43.414 25.228 62.008 42.18 2.695 2.435 5.459 4.758 8.273 7.054-3.492 0-4.605-.759-7.543-2.563l-2.73-1.653-2.914-1.784c-14.134-8.494-28.604-15.652-43.813-22l-2.1-.887c-11.478-4.81-23.13-8.37-35.19-11.422a354 354 0 0 1-5.577-1.472c-7.425-1.974-14.747-3.059-22.383-3.844l-6.703-.727-3.199-.333a188 188 0 0 1-6.746-.89c-16.908-2.148-35.299-1.02-52.102 1.575l-2.738.39c-59.339 8.499-119.173 38.076-157.878 84.736L487 311c11.9.233 23.801.41 35.704.518 5.528.052 11.054.123 16.581.236 5.343.11 10.685.169 16.029.195q3.045.027 6.088.108c11.804.304 19.842-.112 28.759-8.27q2.746-2.693 5.456-5.42c9.837-8.833 20.5-7.518 33.086-7.246q3.438.025 6.877.039c5.998.034 11.994.122 17.99.222 6.135.093 12.269.133 18.403.179 12.01.096 24.018.25 36.027.439l.305-1.855c.983-3.035 2.98-4.023 5.726-5.442 3.357-1.199 5.62-.757 8.969.297 2.857 2.006 4.665 3.421 5.41 6.934.194 4.458-.577 7.499-3.41 11.066-3.69 2.46-6.718 2.814-11 2-2.51-1.422-3.971-2.87-6-5v-2c-12.91-.148-25.818-.23-38.73-.23-5.996-.003-11.99-.027-17.987-.103-5.797-.072-11.592-.085-17.39-.058q-3.301 0-6.602-.063c-13.62-.248-22.106.868-32.206 10.369A339 339 0 0 0 592 311c-7.212 7.256-13.69 7.75-23.535 7.814a956 956 0 0 1-9.754-.13q-3.409-.02-6.818-.03c-5.955-.027-11.908-.096-17.863-.173-6.087-.072-12.174-.104-18.26-.14A5864 5864 0 0 1 480 318l-.918 1.876c-1.128 2.215-2.42 4.143-3.867 6.163l-1.608 2.258-1.67 2.328a3494 3494 0 0 0-3.285 4.602l-1.469 2.049c-1.238 1.72-1.238 1.72-2.183 3.724 17.299.056 34.597.067 51.896.023 8.033-.019 16.066-.023 24.099.008q10.507.041 21.014-.01c3.706-.017 7.411-.02 11.117.01 4.147.033 8.291.004 12.438-.031l3.688.059c8.963-.153 13.374-2.943 19.748-9.059 1.173-.925 2.36-1.833 3.566-2.715 4.903-3.421 4.903-3.421 9.434-7.285a64 64 0 0 1 4.273-.126l2.751-.012 2.996-.003q3.112-.027 6.224-.058c3.286-.03 6.57-.051 9.856-.051 3.161-.004 6.321-.038 9.482-.078l2.977.021c5.585.011 5.585.011 9.967-3.172L672 316c3.11-1.555 5.563-1.286 9-1 3.088 1.631 5.266 3.075 7.438 5.812.875 3.406.453 5.8-.438 9.188-3.263 3.848-5.265 5.836-10.312 6.312-4.259-.36-5.787-1.235-8.688-4.312v-3c-6.369-.06-12.735-.057-19.104-.012a488 488 0 0 1-6.488-.019c-13.865-.7-13.865-.7-26.135 4.531l-1.952 2.078c-6.057 6.321-11.985 11.817-21.025 12.448q-3.692 0-7.383-.135a695 695 0 0 0-4.104-.034q-4.38-.037-8.76-.148c-4.625-.113-9.247-.15-13.872-.175-12.31-.08-24.618-.26-36.926-.479-8.107-.144-16.213-.247-24.322-.275-3.843-.016-7.681-.06-11.523-.17-14.842-1.224-14.842-1.224-28.446 2.74-3.45 3.691-4.704 7.788-5.96 12.65a132 132 0 0 1-2.61 5.39 567 567 0 0 0-2.14 4.86l-1.09 2.445c-2.528 5.713-4.874 11.492-7.16 17.305 5.752-3.701 11.133-7.654 16.438-11.973 14.257-11.28 14.257-11.28 21.503-11.268l3.761-.008 4.133.022h4.346c3.936-.002 7.871.01 11.807.024 4.112.013 8.224.014 12.336.016 7.788.006 15.575.023 23.363.043 8.866.022 17.732.033 26.597.043q27.358.033 54.716.101l.332-1.89c.668-2.11.668-2.11 3.356-3.86 3.563-1.345 5.557-1.876 9.312-1.25 2.92 1.838 5.432 3.864 7 7 .389 4.119.458 6.289-1.812 9.812-3.09 3.09-4.656 4.128-9.063 4.625-3.573-.072-4.115-.43-7.125-2.812-2-2.625-2-2.625-2-4.625a8464 8464 0 0 0-56.383-.127c-8.728.009-17.455 0-26.183-.055q-11.419-.072-22.838-.028c-4.026.015-8.051.013-12.077-.032-21.636-.942-21.636-.942-40.102 8.712L459 387a167 167 0 0 1-5.383 3.934 4256 4256 0 0 0-4.742 3.503l-2.453 1.811c-4.181 3.017-4.181 3.017-8.127 6.322-3.116 1.941-5.334 1.79-8.991 1.77l-2.012.002a668 668 0 0 1-6.558-.049q-2.277-.009-4.556-.013c-3.992-.011-7.983-.04-11.975-.074-4.075-.03-8.15-.044-12.226-.06q-11.99-.05-23.977-.146.702-3.356 1.41-6.708l.794-3.774c.945-4.176 2.174-8.138 3.671-12.143l.794-2.176C381.112 361.703 388.727 344.593 399 329l2.3-3.566c9.334-14.355 19.471-27.601 31.317-39.97 1.811-1.917 3.54-3.9 5.258-5.902 5.552-6.411 11.683-12.06 18.125-17.562l3.012-2.605C465.776 253.573 472.69 248.133 480 243l2.379-1.73c10.018-7.213 20.647-13.512 31.758-18.883q2.807-1.358 5.57-2.805c9.461-4.936 19.34-8.768 29.293-12.582l2.176-.845c54.97-21.17 126.186-24.957 181.38-2.152"/><path fill="#1077cc" d="M853 570c1 2 1 2-.04 5.309q-.779 2.07-1.585 4.129l-.846 2.199A241 241 0 0 1 843 599l-1.668 3.563C826.55 633.574 804.199 661.947 777 683l-3.078 2.453c-34.817 27.566-76.832 45.406-120.413 52.93-2.509.441-5.001.911-7.499 1.41-12.467 2.403-24.712 2.763-37.385 2.707l-3.194-.004c-17.039-.057-32.857-1.352-49.431-5.496l-6.09-1.422c-41.014-9.884-77.985-29.006-109.377-57.208-1.922-1.717-3.884-3.386-5.846-5.058-4.771-4.192-9.458-8.571-13.687-13.312v-2h-2v-2c9.006-.163 18.011-.287 27.018-.363 4.183-.036 8.364-.086 12.547-.165 4.04-.076 8.078-.118 12.118-.136q2.307-.02 4.613-.076c12.064-.286 12.064-.286 16.108 2.244 1.846 1.859 1.846 1.859 3.236 3.708 2.659 3.496 6.665 5.513 10.36 7.788l1.658 1.04C525.522 681.853 545.962 690.3 568 694l2.15.406c12.778 2.38 25.39 2.866 38.35 2.844l2.314-.002c24.602-.073 47.736-3.42 71.374-10.186l2.243-.638c21.312-6.111 41.21-15.013 60.881-25.174l3.199-1.645c5.494-2.873 10.514-5.912 15.489-9.605a85 85 0 0 1 3.938-2.062c6.86-3.717 12.91-8.677 19.078-13.42a471 471 0 0 1 5.449-4.1c7.428-5.55 14.221-11.566 20.949-17.933a273 273 0 0 1 4.684-4.27c9.871-8.831 18.57-18.403 26.886-28.723 2.607-3.223 5.301-6.36 8.016-9.492"/><path fill="#08162c" d="M169.398 433.316q3.972.02 7.944.03c6.223.022 12.445.08 18.667.15 7.093.079 14.186.117 21.28.152 14.57.073 29.14.195 43.711.352-1.21 3.094-2.403 5.847-4.277 8.594l-1.307 1.933-1.353 1.973q-1.329 1.952-2.653 3.906l-1.183 1.729c-1.345 1.904-1.345 1.904-2.237 4.444C246 459 246 459 244.21 459.46c-2.44.172-4.837.178-7.283.137l-2.814.012q-3.028.009-6.055-.016c-3.195-.026-6.388-.021-9.582-.009-6.784.021-13.567.002-20.35-.02-7.853-.022-15.705-.026-23.558 0-3.147.003-6.294-.018-9.44-.04q-2.898.003-5.794.01l-2.652-.039c-4.096.034-6.158.176-9.702 2.41-3.096 3.278-3.267 5.559-3.194 10.06.318 3.014 1.26 4.744 3.215 7.036 4.17 2.187 8.1 2.276 12.705 2.24l2.304.006q2.469.004 4.938-.002c2.617-.006 5.233.003 7.85.017 7.44.037 14.878.056 22.317.044q6.836-.006 13.673.046 2.587.012 5.176-.004c13.597-.081 25.247 1.493 36.1 10.63 7.948 8.3 10.328 17.414 10.117 28.625-.546 10.327-4.938 18.61-12.368 25.773-4.776 4.007-9.857 5.965-15.812 7.625l-1.852.536c-2.393.517-4.547.587-6.995.584l-2.949.004-3.215-.01h-3.4c-3.712 0-7.424-.009-11.136-.016l-7.718-.005q-9.12-.005-18.242-.021-10.386-.015-20.771-.022-21.361-.016-42.722-.05c2.49-10.038 5.747-19.355 15-25 13.749-4.216 30.023-2.229 44.186-1.73 6.593.21 13.188.28 19.783.365 5.128.068 10.252.157 15.379.319l2.851.074q2.623.068 5.245.175c4.97.114 8.242-.437 12.556-3.203 2.415-2.899 2.964-4.751 3.5-8.5-.63-4.405-2.097-5.745-5.5-8.5-2.998-1.499-6.077-1.144-9.365-1.142l-2.302-.01q-2.48-.011-4.963-.017-3.944-.012-7.887-.041c-7.478-.052-14.955-.1-22.432-.116-4.574-.01-9.147-.04-13.72-.081a624 624 0 0 0-5.202-.015c-14.243.013-27.47-.984-38.129-11.578-6.857-7.655-9.561-14.62-9.437-24.812l.029-2.695c.283-10.455 3.116-17.531 10.626-25.016 13.109-11.673 27.513-10.403 44.18-10.16"/><path fill="#08172f" d="M625 433h39l7 8c2.702 3.15 2.702 3.15 6 4 1.492 1.511 1.492 1.511 3.098 3.465 4.203 4.952 8.738 9.518 13.34 14.098l2.447 2.458c3.625 3.62 7.265 7.166 11.15 10.506 5.384 4.63 10.28 9.742 15.254 14.801 3.47 3.506 6.945 6.935 10.688 10.149 4.716 4.052 9.04 8.468 13.398 12.898q2.384 2.421 4.773 4.836l2.1 2.134c1.664 1.731 1.664 1.731 3.752 2.655l-.054-2.566q-.242-12.004-.36-24.009c-.042-4.115-.099-8.228-.19-12.342a711 711 0 0 1-.155-11.923 239 239 0 0 0-.087-4.536c-.325-11.8-.325-11.8 2.559-16.292A44 44 0 0 1 765 446l1.783-1.385c1.59-1.203 3.247-2.318 4.904-3.428l3.262-2.207C782.621 434 782.621 434 785 434v121h-37l-9-9-3-2v-2l-1.76-.77c-2.482-1.363-4.095-2.873-6.068-4.898l-2.176-2.209-2.246-2.31c-6.172-6.324-6.172-6.324-12.703-12.27-5.643-4.847-10.766-10.217-15.98-15.516-4.22-4.26-8.504-8.33-13.053-12.235-3.866-3.439-7.45-7.167-11.077-10.854q-2.295-2.334-4.597-4.66l-2.02-2.056c-2.992-2.865-6.174-5.526-9.32-8.222l-1 89h-29z"/><path fill="#08162d" d="M328.503 433.773h3.166c3.44 0 6.882.016 10.323.032l7.171.008c6.284.008 12.567.028 18.85.05 6.415.02 12.83.03 19.245.04 12.58.02 25.161.055 37.742.097l-3.35 5.765-1.885 3.243a187 187 0 0 1-6.14 9.68l-2.023 3.011C410 458 410 458 409 459c-2.35.104-4.672.144-7.023.142l-2.228.01q-2.404.011-4.81.017-3.815.011-7.632.041c-7.236.052-14.473.1-21.71.116-4.423.01-8.846.04-13.27.081q-2.52.019-5.04.015c-11.248-.01-22.117.372-30.682 8.672-8.505 10.1-8.748 20.586-7.939 33.31 1.24 9.637 5.74 16.942 13.271 22.971 5.972 4.539 12.63 4.924 19.844 4.944l2.574.03c2.787.031 5.573.048 8.36.065q2.91.028 5.822.059c5.09.051 10.182.09 15.274.128 5.201.04 10.403.091 15.605.141q15.293.144 30.584.258c-1.28 3.286-2.61 6.164-4.566 9.102l-1.471 2.234-1.526 2.289a1321 1321 0 0 0-3.003 4.54l-1.342 2.013c-1.251 1.938-1.251 1.938-2.092 4.822a7309 7309 0 0 1-33.017.207c-5.112.021-10.223.05-15.335.095q-7.41.063-14.822.078-2.816.01-5.63.043c-16.593.184-28.872-2.084-41.571-13.571-11.477-11.671-16.934-27.916-17.093-44.065l.03-3.6.023-3.75c.159-8.768.83-16.335 4.415-24.437l1.215-2.848c6.423-13.237 16.86-22.525 30.305-28.22 4.71-1.262 9.129-1.195 13.983-1.16"/><path fill="#07162d" d="M530.563 434.96c2.047 1.219 3.689 2.423 5.437 4.04l2.258 1.926c4.248 4.318 6.984 9.87 9.992 15.074q1.05 1.797 2.103 3.592a2711 2711 0 0 1 4.405 7.553c3.289 5.659 6.601 11.303 9.912 16.95q1.62 2.764 3.237 5.529a2162 2162 0 0 0 13.982 23.535 1549 1549 0 0 1 10.513 17.731 570 570 0 0 0 6.22 10.395l1.274 2.085a515 515 0 0 0 2.413 3.899C605 551.667 605 551.667 605 555c-4.41.324-8.814.558-13.232.714q-2.249.098-4.493.267c-5.021.37-9.397.388-14.275-.981-3.372-3.28-5.212-6.868-7.128-11.137-1.428-3.05-3.208-5.896-4.95-8.773q-1.034-1.761-2.06-3.527c-6.11-10.487-12.255-20.95-18.525-31.343q-3.964-6.575-7.857-13.193l-1.79-3.043a3080 3080 0 0 1-3.416-5.83l-1.56-2.654-1.37-2.344c-1.34-2.15-2.794-4.153-4.344-6.156l-1.003 1.702a5277 5277 0 0 1-25.182 42.266 3913 3913 0 0 0-14.565 24.407l-1.646 2.775-1.588 2.686-1.398 2.36c-2.255 3.907-4.427 7.861-6.618 11.804h-33c2.248-6.744 2.248-6.744 4.223-9.941l1.355-2.223 1.485-2.399a3669 3669 0 0 0 3.253-5.347l1.786-2.938c3.149-5.23 6.223-10.502 9.301-15.774 5.77-9.88 11.58-19.735 17.485-29.535 3.132-5.2 6.228-10.42 9.3-15.656l3.624-6.166q1.2-2.04 2.396-4.082A643 643 0 0 1 497 448l1.543-2.5c7.243-10.712 19.562-15.21 32.02-10.54"/><path fill="#07152d" d="M807 434c28.476-2.519 28.476-2.519 35.416 1.345 3.523 3.532 5.22 7.856 6.813 12.518 1.14 3.159 2.845 5.898 4.583 8.762.64 1.133 1.28 2.266 1.938 3.434 2.788 4.915 5.68 9.768 8.563 14.628 4.21 7.101 8.38 14.222 12.5 21.375 6.647 12.68 6.647 12.68 15.187 23.938l1.038-1.954c3.69-6.865 7.628-13.544 11.708-20.185 5.751-9.365 11.423-18.774 16.954-28.27q2.16-3.704 4.38-7.37c3.145-5.229 6.087-10.33 8.272-16.045 3.947-9.597 3.947-9.597 8.648-12.176 10.838-2.133 22.087-1.092 33 0a224 224 0 0 1-10.687 19.563l-3.22 5.316-1.597 2.637A855 855 0 0 0 954.313 472c-4.161 7.122-8.448 14.165-12.743 21.207l-1.133 1.856-1.128 1.85c-4.608 7.56-9.13 15.151-13.409 22.903-2.81 5.082-5.839 10.008-8.912 14.934-2.888 4.72-5.605 9.532-8.324 14.352A104 104 0 0 1 905 555c-4.37.81-8.814.695-13.25.75l-3.723.188c-8.768.114-8.768.114-11.976-2.566-1.617-2.374-2.825-4.775-4.051-7.372a558 558 0 0 0-3.41-5.793q-1.83-3.195-3.653-6.394a9364 9364 0 0 0-5-8.714c-7.608-13.241-15.466-26.336-23.346-39.416-4.55-7.573-8.987-15.21-13.42-22.853a735 735 0 0 0-12.972-21.475C807 436.212 807 436.212 807 434"/><path fill="#e51823" d="M1081 492c4.256 1.605 6.859 4.822 9.813 8.125l1.618 1.782a661 661 0 0 1 9.862 11.136A544 544 0 0 0 1108.5 520c6.452 7.157 12.747 14.44 19 21.77a430 430 0 0 0 11.172 12.558C1140 556 1140 556 1140 558c-6.404.255-12.806.43-19.214.55q-3.265.075-6.53.204c-18.1.704-18.1.704-23.352-2.849-2.023-2.546-3.474-4.993-4.904-7.905a241 241 0 0 0-4.5-5c-3.834-4.185-7.345-8.545-10.773-13.066-1.668-2.19-1.668-2.19-4.727-2.934l-.75 1.75c-1.417 2.55-3.126 4.268-5.25 6.25l7 4c-1.476 4.34-4.608 5.83-8.437 7.875l-1.92 1.061c-2.78 1.534-5.58 3.03-8.381 4.529-12.244 6.57-24.66 13.492-35.262 22.535l-3.258 2.707c-5.726 4.798-11.224 9.681-16.43 15.043-8.896 8.986-18.65 14.63-29.705 20.549-14.672 7.894-28.415 17.147-42.11 26.607a766 766 0 0 1-12.184 8.219c-7.185 4.766-14.294 9.64-21.386 14.543a5015 5015 0 0 1-5.685 3.922c-6.695 4.601-6.695 4.601-13.242 9.41l-2-1c20.409-19.055 20.409-19.055 27-22v-2c1.582-1.375 1.582-1.375 3.813-3 3.702-2.793 7.155-5.728 10.562-8.875 4.476-4.127 9.097-7.994 13.84-11.809 4.002-3.328 7.783-6.875 11.57-10.445C936 615 936 615 938 615l1-3c1.898-1.691 1.898-1.691 4.375-3.562a169 169 0 0 0 11.063-9.375A222 222 0 0 1 965.5 589.5c4.818-3.89 9.401-7.985 13.96-12.172 4.488-4.114 9.087-8.094 13.724-12.039 5.756-4.903 11.464-9.83 17.004-14.976 4.568-4.243 9.303-8.22 14.16-12.13 2.645-2.177 5.184-4.436 7.715-6.745 3.88-3.53 7.87-6.84 11.988-10.086 3.772-3.008 7.483-6.088 11.199-9.164 5.495-4.54 11.02-9.034 16.625-13.438l1.747-1.374c2.413-1.886 4.828-3.676 7.378-5.376M1199 376l2 1c-23.161 19.897-23.161 19.897-32.437 27.438-5.417 4.41-10.713 8.953-16.008 13.507-7.891 6.787-15.817 13.51-23.977 19.973-2.988 2.413-5.908 4.9-8.828 7.394-5.067 4.325-10.25 8.468-15.51 12.556-4.646 3.626-9.151 7.396-13.633 11.222a426 426 0 0 1-11.83 9.695 990 990 0 0 0-8.464 6.845 1369 1369 0 0 1-32.138 25.39c-4.742 3.639-9.46 7.308-14.175 10.98-10.848 8.446-21.754 16.815-32.677 25.164a7075 7075 0 0 0-13.573 10.399l-3.016 2.316A552 552 0 0 0 967 566l-2-1 2.643-2.627q4.898-4.873 9.79-9.75 2.109-2.103 4.222-4.202 3.052-3.035 6.099-6.077l1.879-1.864a206 206 0 0 0 10.77-11.662c2.56-2.914 5.324-5.609 8.097-8.318 4.141-4.09 8.12-8.227 11.887-12.668 2.448-2.78 5.107-5.336 7.746-7.934 2.466-2.507 4.67-5.152 6.867-7.898-1.338-4.022-2.97-6.256-6.062-9.125a106.5 106.5 0 0 1-9.313-10.187c-4.15-5.181-8.557-10.05-13.066-14.915a322 322 0 0 1-7.723-8.703 166 166 0 0 0-4.484-4.828l-1.397-1.468a624 624 0 0 0-4.014-4.16c-2.208-2.974-2.126-4.045-1.941-7.614a572 572 0 0 1 17.657-.769 229 229 0 0 0 5.99-.287c17.448-1.04 17.448-1.04 23.484 4.037 2.861 2.864 5.313 5.953 7.631 9.267 1.83 2.589 3.875 4.96 5.926 7.377l2.101 2.621c2.553 3.18 5.158 6.313 7.774 9.442l1.34 1.605L1062 468c4.188-1.465 7.454-3.558 11.063-6.125q1.743-1.23 3.488-2.457c.58-.41 1.162-.819 1.76-1.24 2.45-1.709 4.944-3.349 7.439-4.99 4.86-3.221 9.624-6.56 14.375-9.938 6.518-4.63 13.115-9.117 19.78-13.531 12.11-8.029 24.103-16.237 36.033-24.531 8.815-6.12 17.718-12.113 26.812-17.813 5.608-3.533 10.936-7.418 16.25-11.375"/><path fill="#0f73c7" d="m1005 229 2 1c-4.169 4.262-8.303 8.318-13 12-2.665 2.532-5.063 5.077-7.375 7.938-2.373 2.91-5.057 5.236-7.937 7.632-2.372 2.01-4.518 4.206-6.688 6.43l-1.758 1.727c-2.53 2.487-4.934 4.86-7.054 7.71L962 275h-2l-.757 1.747c-1.417 2.568-3.032 4.253-5.13 6.3l-2.345 2.312-2.456 2.391c-5.12 5.008-10.128 10.02-14.766 15.483-1.61 1.84-3.3 3.557-5.046 5.267a123 123 0 0 0-7 7.5 123 123 0 0 1-7 7.5c-2.967 2.921-5.7 5.98-8.418 9.133-2.642 3.004-5.36 5.935-8.082 8.867-3.192 3.441-6.372 6.882-9.437 10.438-2.666 3.089-5.432 6.071-8.223 9.046-5.364 5.718-10.462 11.515-15.363 17.637-2.235 2.69-4.649 5.081-7.164 7.504-2.263 2.341-4.272 4.838-6.313 7.375-3.044 3.785-6.17 7.239-9.664 10.602-3.238 3.348-6.1 7.012-9.016 10.64C832 417 832 417 831 418c-1.412.093-2.83.117-4.244.114h-2.73l-2.967-.016-3.023-.005c-3.2-.005-6.399-.018-9.598-.03q-3.246-.009-6.49-.014-7.975-.017-15.948-.049l2.378-2.374a386 386 0 0 0 4.571-4.646l1.739-1.793 1.761-1.832C798 406 798 406 800 406l1-3c1.496-1.508 1.496-1.508 3.438-3.125l2.21-1.879L809 396c6.6-5.824 13.035-11.82 19.46-17.835A912 912 0 0 1 844 364l5.125-4.625c2.83-2.55 5.677-5.075 8.563-7.562 4.03-3.506 7.916-7.16 11.812-10.813 5.087-4.765 10.194-9.478 15.5-14q3.408-2.904 6.813-5.812l1.837-1.569a418 418 0 0 0 11.038-9.807c4.408-4.046 8.973-7.84 13.628-11.597 2.631-2.171 5.163-4.417 7.684-6.715 4.226-3.847 8.59-7.472 13.035-11.062 2.68-2.203 5.3-4.455 7.912-6.735 6.884-5.996 14.022-11.53 21.362-16.953a256 256 0 0 0 9.004-7c4.16-3.37 8.447-6.525 12.792-9.652 5.014-3.634 9.95-7.37 14.895-11.098"/><path fill="#267cc5" d="M632 362c2.92 1.838 5.432 3.864 7 7 .389 4.119.458 6.289-1.812 9.813-3.09 3.09-4.656 4.127-9.063 4.625-3.573-.073-4.115-.43-7.125-2.813-2-2.625-2-2.625-2-4.625a8464 8464 0 0 0-56.383-.127c-8.728.009-17.455 0-26.183-.055q-11.419-.072-22.838-.028c-4.026.015-8.051.013-12.077-.032-21.662-.934-21.662-.934-40.152 8.745L459 387a143 143 0 0 1-4.867 3.602 1919 1919 0 0 0-4.008 3.023l-2.121 1.598Q445.5 397.109 443 399l-1-3h-2l1-2 .813-1.925c1.415-2.473 2.882-3.618 5.187-5.282l2.441-1.78 2.559-1.825 2.465-1.792A863 863 0 0 1 462 376l1.951-1.7c7.305-5.927 13.546-6.27 22.678-6.095q2.175.003 4.35-.003a897 897 0 0 1 11.719.088c4.093.044 8.186.048 12.28.056 7.738.022 15.475.08 23.213.15 8.815.078 17.63.117 26.446.152 18.121.073 36.242.196 54.363.352l.332-1.89c.668-2.11.668-2.11 3.356-3.86 3.563-1.345 5.557-1.876 9.312-1.25"/><path fill="#6b6e73" d="M202.75 587.563c5.416 2.703 8.69 6.672 11.625 11.875 1.625 6.664.854 11.55-2.375 17.562-3.672 5.508-7.623 8.148-14 10-5.564.926-10.212.16-15.14-2.59-4.2-3.185-7.202-7.437-8.86-12.41-.884-7.453-.522-13.054 4.172-19.086 7.118-7.452 14.898-9.093 24.578-5.351"/><path fill="#6a6c71" d="M487 589c4.436 3.138 7.386 5.675 9 11 .638 6.62 1.147 13.471-3 19-6.011 5.847-10.701 7.47-18.868 7.51-5.309-.141-8.632-1.165-12.652-4.807-5.094-5.861-5.862-10.175-5.75-17.887.507-5.292 2.3-8.968 6.176-12.605 7.902-6.221 16.106-7.113 25.094-2.211"/><path fill="#267cbf" d="M681 315c3.088 1.631 5.266 3.075 7.438 5.813.875 3.405.453 5.8-.438 9.187-3.263 3.848-5.265 5.836-10.312 6.313-4.259-.361-5.787-1.236-8.688-4.313v-3c-6.369-.06-12.735-.057-19.104-.012a488 488 0 0 1-6.488-.019c-13.865-.7-13.865-.7-26.135 4.531l-1.953 2.078c-6.083 6.35-12.018 11.792-21.078 12.504-2.485.026-4.971.003-7.456-.06a750 750 0 0 0-4.143.004c-3.711.002-7.42-.05-11.13-.113-3.891-.057-7.783-.062-11.675-.073-7.352-.028-14.704-.101-22.056-.192-8.377-.1-16.754-.15-25.132-.195A8293 8293 0 0 1 461 347v-2l134-1 1-2H469v-1l2.002.007q24.165.078 48.33.016c7.79-.019 15.58-.023 23.372.008q10.19.041 20.38-.01c3.595-.017 7.189-.02 10.783.01 4.022.033 8.042.004 12.064-.031l3.575.059c8.84-.155 13.198-3.056 19.494-9.059 1.173-.925 2.36-1.833 3.566-2.715 4.903-3.421 4.903-3.421 9.434-7.285a64 64 0 0 1 4.273-.126l2.751-.012 2.996-.003q3.112-.027 6.224-.058c3.286-.03 6.57-.051 9.856-.051 3.161-.004 6.321-.038 9.482-.078l2.977.021c5.585.011 5.585.011 9.967-3.172L672 316c3.11-1.555 5.563-1.286 9-1"/><path fill="#1175c8" d="M515.7 500.39c8.43-.297 8.43-.297 12.3 1.61 4.483 4.353 7.065 10.204 9.813 15.734 2.091 3.991 4.808 7.423 7.53 11.004 1.728 2.36 3.302 4.67 4.657 7.262l-1 2q-4.25-1.404-8.5-2.812l-2.398-.792-2.383-.79-2.399-.796c-2.194-.766-4.327-1.627-6.476-2.51-7.64-2.834-13.689-.61-20.969 2.138a1618 1618 0 0 1-5.258 1.933l-2.325.873c-2.411.795-4.795 1.306-7.292 1.756 1.286-3.466 2.787-6.433 4.828-9.512l1.676-2.549 1.746-2.626q1.698-2.568 3.39-5.137l1.708-2.563c1.694-2.606 1.694-2.606 3.142-5.425 4.072-7.638 4.072-7.638 8.21-8.797"/><path fill="#686b71" d="M525 587c7 0 7 0 8.898 1.328l1.477 1.922 1.727 2.188L539 595l2.336 3.063A860 860 0 0 1 548 607l3 4 1-24h8v39c-8 0-8 0-10.114-1.649l-1.554-2.296-1.768-2.516-1.751-2.664a3636 3636 0 0 0-3.543-5.133l-1.544-2.317c-2.084-2.928-4.425-5.664-6.726-8.425l-1 25h-7z"/><path fill="#6d7075" d="M297 587h8l.028 2.4c.054 3.596.138 7.191.222 10.788l.043 3.775.098 3.642.063 3.349c.668 3.73 1.84 5.424 4.546 8.046 4.835.768 6.541.904 10.703-1.676 4.146-4.452 3.083-11.461 3.11-17.136l.076-3.834q.088-4.677.111-9.354h7q.149 6.03.22 12.06.03 2.05.082 4.097c.049 1.97.069 3.942.089 5.913l.063 3.587c-.552 4.064-1.912 6.162-4.454 9.343-5.972 4.51-10.671 5.69-18 5-5.527-1.981-8.548-5.003-11.097-10.264-1.053-3.191-1.13-5.773-1.098-9.13l.02-3.643.05-3.775.027-3.834q.036-4.678.098-9.354"/><path fill="#6a6c73" d="m142.625 588 3.375 2-2 6c-4.75-.875-4.75-.875-7-2-1.874-.07-3.75-.084-5.625-.062l-3.04.027L126 594l-1 6 1.871.516c16.153 4.622 16.153 4.622 20.129 9.484 1.114 4.625 1.434 7.827-1 12-4.831 4.498-9.935 5.45-16.355 5.324-4.228-.518-8.116-1.92-11.645-4.324l-1-3 4-4 2.074 1.488c3.516 1.817 5.809 1.819 9.739 1.7l3.519-.083L139 619l1-6-1.871-.55a633 633 0 0 1-5.32-1.606 147 147 0 0 0-5.336-1.5c-4.111-1.15-6.092-1.926-9.035-5.157-1.578-3.496-2.001-5.405-1.438-9.187 1.71-4.49 4.455-6.365 8.691-8.27 5.962-1.886 11.35-1.493 16.934 1.27"/><path fill="#6e7175" d="M618 590c-.506 2.169-1 4-2 6l-2.375-1c-4.576-1.262-8.9-1.383-13.625-1-1.296 1.066-1.296 1.066-1.062 3.563L599 600l1.652.516c15.98 5.135 15.98 5.135 19.348 9.484.847 3.705.802 7.435-.95 10.852-3.2 4.1-6.584 5.83-11.663 6.484-6.011.087-11.646-.229-16.387-4.336-.836-1.953-.836-1.953-1-4l2-3c4.75 1.875 4.75 1.875 7 3 1.852.096 3.708.13 5.563.125l3.003.008c2.382.141 2.382.141 3.434-1.133.04-1.666.043-3.334 0-5-1.07-.38-1.07-.38-2.16-.77A990 990 0 0 1 600 609l-2.184-.793c-3.67-1.429-6.14-2.56-7.816-6.207-.831-6.44-.831-6.44.95-9.781 7.184-9.247 18.007-7.578 27.05-2.219"/><path fill="#0c73c0" d="M471 371h147v3h4v2l-3 1v-2l-2.256.003q-27.153.033-54.306.049-13.13.007-26.261.023-11.442.015-22.885.02-6.06 0-12.121.01-5.701.012-11.403.008-2.096 0-4.19.006-2.858.006-5.712.001l-3.232.003C474 375 474 375 471 374z"/><path fill="#0e77cd" d="M681 315c3.088 1.631 5.266 3.075 7.438 5.813.875 3.405.453 5.8-.438 9.187-3.263 3.848-5.265 5.836-10.312 6.313-4.276-.363-5.736-1.274-8.688-4.313l-1-3-44-1v-5h45l1-5c3.223-3.595 6.37-3.559 11-3"/><path fill="#f5f7f8" d="M199 593c2.875 1.75 2.875 1.75 5 4l1.813 1.688c1.906 3.711 1.813 7.234 1.187 11.312-1.564 4.178-3.87 8.102-8 10-4.293.573-7.853.474-11.875-1.187-3.23-2.755-4.891-4.87-5.41-9.184-.227-6.65.884-10.016 5.41-14.942 3.993-2.343 7.349-2.51 11.875-1.687"/><path fill="#f7f8f9" d="M480 593c4.04 1.784 6.424 3.92 8.5 7.813.775 4.94.948 8.991-1.84 13.218-3.302 3.94-5.08 5.782-10.348 6.407-4.54-.025-6.752-1.9-9.964-4.93-2.998-3.354-2.616-6.659-2.567-10.965.375-4.352 2.034-7.175 4.844-10.418 3.79-1.795 7.27-1.857 11.375-1.125"/><path fill="#1278cf" d="M626.46 291.926q3.368.03 6.734.047c5.864.042 11.725.15 17.587.272 6 .113 12 .163 18 .218 11.741.117 23.48.305 35.219.537l-1 3 4 2-3.695-.043a3191 3191 0 0 0-34.643-.188 1440 1440 0 0 1-17.806-.102 996 996 0 0 0-17.215-.058q-3.267 0-6.535-.063c-12.632-.232-21.248.397-30.786 9.256l-1.664 1.622C592 311 592 311 590 311l-1-2h-5a923 923 0 0 1 3.53-3.526 276 276 0 0 0 4.196-4.33c10.448-10.07 20.859-9.594 34.735-9.218"/><path fill="#707279" d="M359 587h33v7h-13v32h-8v-33h-12z"/><path fill="#030e1c" d="M626 435h1v118l23-1v-88h3v90h-27z"/><path fill="#65676b" d="M243 587h7v33h21v6h-28z"/><path fill="#52a3dd" d="m470 370 2 1-1 3 148 1v1l-2.241-.012a8369 8369 0 0 0-54.142-.115c-8.728.009-17.455 0-26.183-.055q-11.419-.072-22.838-.028c-4.026.015-8.051.013-12.077-.032-21.662-.934-21.662-.934-40.152 8.745L459 387a143 143 0 0 1-4.867 3.602 1919 1919 0 0 0-4.008 3.023l-2.121 1.598Q445.5 397.109 443 399l-1-3h-2l1-2 .808-1.922c1.431-2.495 2.93-3.646 5.262-5.32l2.47-1.793 2.585-1.84 5.008-3.617 2.458-1.765c3.504-2.535 6.96-5.132 10.409-7.743"/><path fill="#dc2330" d="M921 628c.553 2.076 1 3.844 1 6h7c-6.906 5.755-14.458 10.658-21.937 15.625-12.86 8.54-25.675 17.16-38.063 26.375l-2-1c20.409-19.055 20.409-19.055 27-22v-2c1.582-1.375 1.582-1.375 3.813-3 4.79-3.613 9.179-7.558 13.59-11.621 3.136-2.872 6.348-5.635 9.597-8.379"/><path fill="#707179" d="M419 587h8v39h-8z"/><path fill="#2980c9" d="M809 305h18v17h-18z"/><path fill="#1472c0" d="M590 308c-.062 2.188-.062 2.188-1 5-5.616 5.062-9.66 5.712-17.066 5.568l-2.988.002a880 880 0 0 1-9.723-.082q-3.383-.014-6.764-.021c-5.92-.02-11.84-.068-17.76-.124-6.046-.05-12.092-.074-18.138-.099A8145 8145 0 0 1 481 318v-1c4.994-.994 9.783-1.17 14.851-1.205l2.633-.03q4.286-.046 8.57-.081l5.961-.063q7.827-.082 15.654-.153 7.994-.077 15.987-.161 15.672-.161 31.344-.307l-33-1v-1h38l2-4c3-1 3-1 7-1"/><path fill="#add9f5" d="M469 333c.563 1.938.563 1.938 1 4l-1 1 128 1v-2h5c-1.16 1.97-1.16 1.97-3 4-2.462.492-2.462.492-5.448.481l-3.43.017-3.763-.044-3.962.002c-3.587.001-7.173-.023-10.76-.05-3.747-.025-7.495-.028-11.243-.033-7.097-.012-14.194-.045-21.291-.085-8.08-.045-16.16-.067-24.24-.087A17532 17532 0 0 1 465 341c1.125-2.972 2.223-5.334 4-8"/><path fill="#de242e" d="M1007 522c0 3 0 3-2 6l2 1-1 3 4 1-2.168 1.617a1731 1731 0 0 0-21.156 16.09 2967 2967 0 0 1-5.211 4.008l-1.758 1.35-4.832 3.708A531 531 0 0 0 967 566l-2-1 2.643-2.627q4.898-4.873 9.79-9.75 2.109-2.103 4.222-4.202 3.052-3.035 6.099-6.077l1.879-1.864a208 208 0 0 0 10.804-11.695c2.083-2.38 4.293-4.584 6.563-6.785"/><path fill="#117bd3" d="M471 371h146l-1 2H476v1h-5z"/><path fill="#1d7ac8" d="M740 273h16v16h-16z"/><path fill="#207cc9" d="m580 311 1 2-1.937.938c-2 .897-2 .897-3.063 2.062a95 95 0 0 1-5.263.145l-3.411.02-3.724.003-3.818.01q-4.018.008-8.035.007c-3.404 0-6.807.014-10.21.031-3.271.014-6.542.013-9.812.014l-3.663.022c-6.388-.017-12.356-.442-18.608-1.782-4.345-.831-8.732-.937-13.144-1.095l-2.74-.117c-2.19-.093-4.381-.176-6.572-.258v-1z"/><path fill="#65676f" d="M324 587h7q.149 6.03.22 12.06.03 2.05.082 4.097c.049 1.97.069 3.942.089 5.913l.063 3.587c-.548 4.036-1.893 6.213-4.454 9.343h-2l-1-2h-3c.875-4.875.875-4.875 2-6 .158-1.998.251-4 .316-6.004l.127-3.682.12-3.876.13-3.89q.16-4.773.307-9.548"/><path fill="#3287ca" d="m605 293 1 4h101v1l-3.695-.043a3191 3191 0 0 0-34.643-.188 1440 1440 0 0 1-17.806-.102 996 996 0 0 0-17.215-.058q-3.267 0-6.535-.063c-12.632-.232-21.248.397-30.786 9.256l-1.664 1.622C592 311 592 311 590 311l-1-2h-5c3.81-3.97 7.857-7.423 12.188-10.812l1.904-1.522C602.755 293 602.755 293 605 293"/><path fill="#d62530" d="m1199 376 2 1c-11.736 10.082-23.475 20.151-35.477 29.918-3.576 2.95-7.062 5.998-10.523 9.082l-2-3c1.933-2.025 3.632-3.421 6-5l-4-2c10.124-7.194 20.419-14.147 30.938-20.75 4.537-2.86 8.839-5.946 13.062-9.25"/><path fill="#1a7ac7" d="m1005 229 2 1c-4.169 4.262-8.303 8.318-13 12-2.665 2.532-5.063 5.077-7.375 7.938-2.37 2.905-5.045 5.23-7.926 7.617-1.53 1.301-2.966 2.712-4.386 4.132A46.6 46.6 0 0 1 968 267v-4l3-1 1-3h-4l-1 2-2-2z"/><path fill="#77777e" d="m607 609 5 1 2 8h2l2 4c-2.955 3.421-6.15 4.762-10.613 5.336-6.011.087-11.646-.229-16.387-4.336-.836-1.953-.836-1.953-1-4l2-3c4.75 1.875 4.75 1.875 7 3 1.852.096 3.708.13 5.563.125l3.003.008c2.382.141 2.382.141 3.434-1.133.04-1.666.043-3.334 0-5l-5-2z"/><path fill="#cdf3fe" d="m606 342 2 1c-1.279 2.46-1.279 2.46-4 5-3.827.79-7.64.68-11.535.644l-3.575.026c-3.236.02-6.472.018-9.71.006-3.404-.007-6.81.015-10.214.035-6.47.032-12.938.04-19.407.038-9.425-.002-18.849.032-28.273.068l-4.216.015-2.085.008q-7.014.024-14.03.022c-13.351.014-26.632.231-39.955 1.138l-.312 1.938L460 354l-3 1v3h-2c.597-1.693 1.284-3.354 2-5l1.251-3.135c3.226-3.362 4.022-3.335 8.511-3.598 2.488-.023 4.977-.012 7.464.024q2.058-.003 4.116-.013 4.427-.014 8.856.025c4.668.038 9.336.032 14.005.02 9.069-.017 18.137.011 27.206.044 11.54.038 23.079.054 34.619.034q6.96-.008 13.92.039c2.888.015 5.775.014 8.663.01 1.976 0 3.951.022 5.927.044l3.573-.015 3.099.012c3.502-.616 5.211-2.108 7.79-4.491"/><path fill="#0f6fb9" d="M624 323h45v5h-45z"/><path fill="#4993d1" d="m668 321 1 2-23 1v1h-22v3h44v1l-1.668.004c-5.743.02-11.486.074-17.228.149q-3.213.034-6.425.043c-3.084.009-6.166.05-9.25.097l-2.888-.012c-6.347.138-9.04 1.249-13.541 5.719h-2l2-5-2-2c3.584-3.99 6.558-6.359 12.017-6.773q2.865-.06 5.73-.032l3.063-.041c3.21-.037 6.418-.034 9.628-.029q3.276-.027 6.552-.062c5.337-.052 10.673-.07 16.01-.063"/><path fill="#d9252d" d="M904.266 645.324 906 646c-.33 2.9-.53 4.54-2.651 6.618l-2.146 1.398-2.388 1.59-2.565 1.644-5.207 3.445-2.596 1.697c-3.333 2.19-6.613 4.453-9.885 6.733l-2.996 2.07A215 215 0 0 0 869 676l-2-1c20.409-19.055 20.409-19.055 27-22v-2c1.61-1.543 1.61-1.543 3.75-3.187l2.11-1.668c2.14-1.145 2.14-1.145 4.406-.82"/><path fill="#1076cc" d="M846 279h13v13h-13z"/><path fill="#227ec5" d="M819.297 249.852c4.417 3.51 8.5 7.362 12.59 11.246 2.931 2.773 5.988 5.349 9.113 7.902-3.51 0-4.655-.787-7.613-2.598l-2.765-1.67-2.934-1.795C819.29 257.88 810.876 253.166 802 249c3.01-.934 3.867-1.044 7 0v-2c4.623-1.678 6.506.178 10.297 2.852"/><path fill="#e6fdfe" d="M473 376h146l1 4h-4v-2l-143-1z"/><path fill="#65666c" d="M604 603c5.67.567 10.137 1.725 14.656 5.316 1.753 2.196 1.685 3.47 1.594 6.246-.015.786-.03 1.57-.047 2.38C620 619 620 619 619 621l-3-1v-2l-3 1-1-9-3.687.125c-3.532.013-6.113-.525-9.313-2.125 1.375-1.5 1.375-1.5 3-3h2z"/><path fill="#318ecf" d="M419 656h70l-1 3-65-1v2h-2v-2h-2z"/><path fill="#2d85cc" d="M750 310h12v12h-12z"/><path fill="#1d77c3" d="M853 570c1 2 1 2-.04 5.309q-.779 2.069-1.585 4.129l-.833 2.168c-6.26 16.112-6.26 16.112-9.542 19.394v-4h2l-2-6-1.812.5C837 592 837 592 834 592l2.125-2.273c5.914-6.367 11.56-12.843 16.875-19.727"/><path fill="#3386cb" d="M578 739h63c-5.933 3.955-12.98 3.147-19.875 3.133l-3.16.003q-3.297 0-6.596-.006c-3.357-.005-6.715 0-10.072.007q-3.21 0-6.422-.004l-3.03.006c-4.729-.016-9.196-.154-13.845-1.139z"/><path fill="#dfe5ee" d="M158.948 458.886h2.808c3.074 0 6.147.009 9.22.016l6.382.005q8.409.006 16.818.024 8.576.014 17.152.02 16.836.016 33.672.049v1h-94l-1 4a318 318 0 0 1-5 6c-1.279 2.216-1.279 2.216-2 4-.67-7.768-.67-7.768 2.375-11.438 4.326-4.223 7.796-3.7 13.573-3.676"/><path fill="#dc2330" d="M992 538c1 4 1 4 1 8a53 53 0 0 1-5.687 4.625l-3.555 2.625-1.866 1.36c-3.11 2.285-6.154 4.653-9.205 7.015l-3.3 2.54c-.788.605-1.576 1.21-2.387 1.835l-2-1z"/><path fill="#d0effd" d="m616.953 297.432 2.987-.002c3.247.004 6.493.042 9.74.082q3.383.014 6.767.021c5.929.02 11.857.068 17.785.124 6.053.05 12.106.074 18.159.099 11.87.053 23.74.139 35.609.244l2 4-2 1-1-4q-19.26.055-38.517.184c-5.961.04-11.922.072-17.884.087-5.751.015-11.502.05-17.253.097q-3.295.022-6.589.024c-3.072.002-6.143.03-9.215.062l-2.762-.015c-5.084.041-5.084.041-9.376 2.595L604 304l-3-1c5.108-5.293 8.764-5.708 15.953-5.568"/><path fill="#fde6e6" d="M1067.957 527.176c2.531 1.02 3.31 2.122 4.793 4.386l1.297 1.942L1075 535l-5-1v2l2 1-2 4h-2v3h-5l1.5-1.375c1.726-1.501 1.726-1.501 1.5-3.625l-7-3c5.095-9.171 5.095-9.171 8.957-8.824"/><path fill="#d54850" d="M987 431q9.02-.259 18.042-.385 3.068-.052 6.134-.143c2.944-.085 5.886-.125 8.832-.156l2.756-.11c6.266-.003 6.266-.003 9.19 2.399 1.495 1.735 2.815 3.465 4.046 5.395l-2 1-1-2c-2.017-1.134-2.017-1.134-4-2v-2h-40l-1 4c-1-1-1-1-1.062-3.562z"/><path fill="#e0464c" d="M1134 550c4.875 4.625 4.875 4.625 6 8h-46l-1-3h41z"/><path fill="#7a7a82" d="m120 616 2.5 1.438c4.028 1.798 7.132 2.185 11.5 2.562l-2 2v3l5 1v1c-6.993.526-13.051.052-19-4l-1-3c1.438-2.187 1.438-2.187 3-4"/><path fill="#e7f9fe" d="M623 329c1.987-.36 1.987-.36 4.45-.34h2.79l3.018.047 3.085.013c3.261.017 6.521.054 9.782.092q3.31.024 6.621.042 8.127.05 16.254.146v2c-16.005.622-31.982 1.18-48 1z"/><path fill="#656a6d" d="m460 594 5 2c.125 5.75.125 5.75-1 8h-2c-1.648 2.967-2.443 5.656-3 9l-3-1c-.557-11.593-.557-11.593 3-17z"/><path fill="#1b76c0" d="M618 329v3l-2 1v3c-1.969 1.605-1.969 1.605-4.5 3.188l-2.531 1.605L607 342l-6-3c10.375-11.004 10.375-11.004 17-10"/><path fill="#72767d" d="M213 599c2.47 3.704 2.45 6.706 2 11-1 2.5-1 2.5-2 4-4.75-.875-4.75-.875-7-2l1-10h6z"/><path fill="#717376" d="M271 620v6h-28v-1h13v-2l-2-1 7.938-1 2.287-.29c5.662-.71 5.662-.71 6.775-.71"/><path fill="#f2fafa" d="M786 504h2l-.035 2.852-.028 3.773-.035 3.727c.09 3.336.529 6.368 1.098 9.648.323 7.04.122 14.041-1 21l-2 2z"/><path fill="#d4f2fe" d="M418 655h70v1h-69v2h2l-1 3h-2z"/><path fill="#6a6b72" d="M592 616c5 2 5 2 7.438 3.063 2.84 1.038 5.573 1.52 8.562 1.937v1h-5v2c-8.193 1.453-8.193 1.453-11.562-.437L590 622c.506-2.169 1-4 2-6"/><path fill="#fcdee0" d="m1048 502 2 1c-7.07 9.979-7.07 9.979-13 12h-3l-1 3a402 402 0 0 1-6 3l-2 3c-2.625.688-2.625.688-5 1 4.28-4.548 9.047-8.272 14-12.062l4.75-3.66 2.23-1.716A416 416 0 0 0 1048 502"/><path fill="#1578c4" d="m470 370 2 1-1 3h3c-1.411 4.234-4.111 5.96-8 8-3.437.313-3.437.313-6 0 1.088-5.71 3.775-7.744 8.32-10.898z"/><path fill="#212d42" d="M785 434v72h-1l-1-69-3-1c3-2 3-2 5-2"/><path fill="#2f7ebf" d="m1005 229 2 1c-4.169 4.262-8.303 8.318-13 12l-2.625 2.625C989 247 989 247 986 249l-1-5z"/><path fill="#1d74c1" d="M803 239q2.507 1.426 5 2.875l2.813 1.617L813 245v2h-4v2a764 764 0 0 1-4.375-.437l-2.46-.247C800 248 800 248 798 247v-2l2-1v-2l3-1z"/><path fill="#cbe9fa" d="M647 740h-2l-1 3c-15.322 1.59-30.648.661-46 0v-1l2.947-.06c3.658-.077 7.317-.166 10.975-.257q2.361-.057 4.722-.105c8.22-.167 16.135-.369 24.181-2.26 2.364-.346 3.92-.052 6.175.682"/><path fill="#2a81c5" d="M836 292h9v8h-9z"/><path fill="#287abd" d="M846 279h13v13h-13zm1 1-.062 3.875-.036 2.18c-.028 2.027-.028 2.027 1.098 3.945h9v-10z"/><path fill="#2272ba" d="M821 255c5.343.168 8.47 3.562 12.25 6.938l1.93 1.67c4.667 4.086 4.667 4.086 5.82 6.392-4.573-1.64-8.596-3.96-12.75-6.437l-2.074-1.198c-5.057-3.009-5.057-3.009-6.176-6.365z"/><path fill="#63666a" d="M130 603c8.571.857 8.571.857 12 3l-1.875.25c-2.66.662-2.66.662-4.125 4.75l-10-2v-3l4-2z"/><path fill="#db2932" d="M1007 522c0 3 0 3-2 6l2 1-1 3 4 1q-1.716 1.254-3.437 2.5l-1.934 1.406C1003 538 1003 538 1002 538v-6l-4-1z"/><path fill="#6e6f78" d="M472 588h-3v2h2v2h-2l1 3-3 1-1 3-1-3c-2.015-.733-2.015-.733-4-1 0-3 0-3 1.39-4.422l1.86-1.328 1.828-1.36c2.396-1.11 3.49-.773 5.922.11"/><path fill="#d4f1fb" d="M454 358c2.086 3.664 2.086 3.664 1.313 6.688C454 367 454 367 451 368v5h-2l-.187 2.688c-.995 4.053-2.714 5.61-5.813 8.312 2.652-9.116 6.88-17.477 11-26"/><path fill="#c2e8fa" d="M576 695h16v2h34v1q-7.305.074-14.612.11-2.475.015-4.951.04c-10.365.108-20.204-.303-30.437-2.15z"/><path fill="#ddf4fd" d="m467 380 2 1v3h-5v2l-4 1v5l-7 1-1 3h-5c3.922-4.166 8.169-7.484 12.813-10.812A1616.01 1616.01 0 0 1 467 380"/><path fill="#4991c9" d="M803 290q3.5-.062 7 0c1 1 1 1 1.063 4.563L811 298h-8z"/><path fill="#c5e1f3" d="M845 279h1v22h-10c-1-1-1-1-1.133-3.25l.008-2.75-.008-2.75C835 290 835 290 836 289c3.438-.187 3.438-.187 7 0l2 2zm-9 13v8h9v-8z"/><path fill="#2786d4" d="M461 378v3l3 2c-6.074 5.06-6.074 5.06-9.937 4.813L452 387l-1-3a617 617 0 0 1 3.875-3l2.18-1.687C459 378 459 378 461 378"/><path fill="#dff7fe" d="M620 321h48v1l-1.713.011c-5.889.042-11.777.111-17.666.197q-3.295.042-6.59.063c-3.16.021-6.32.068-9.48.12l-2.971.003c-4.473.096-6.905.17-10.74 2.644L617 327l-1-3 4-1z"/><path fill="#2279c0" d="m605 293 .375 1.938L606 297l2 1-9 7-1-2h2v-3l-7 2c8.75-9 8.75-9 12-9"/><path fill="#fed9d6" d="M1086 472c0 3.204-.743 5.094-2 8l-2-1-1 1-3 1-1 2-1 2-3 1-1 2h-5c3.832-4.008 7.925-7.428 12.313-10.812l1.955-1.522A1875 1875 0 0 1 1086 472"/><path fill="#daf2fc" d="m769 688 2 1c-2.178 5.263-6.257 7.203-11 10l-3 2c-2.687.125-2.687.125-5 0a43 43 0 0 1 6.355-5.48l1.885-1.338 1.947-1.37 1.983-1.404q2.413-1.707 4.83-3.408"/><path fill="#d33440" d="m885 659 2 4c-5.982 4.36-11.968 8.71-18 13l-2-1q2.81-2.596 5.625-5.187l1.582-1.463A254 254 0 0 1 885 659"/><path fill="#2277bc" d="M685 318c3.575 3.575 3.916 5.023 4 10-1.598 3.136-3.005 5.245-5.812 7.375-3.091.883-5.995.748-9.188.625v-2h4v-2l6 1 1-4h1z"/><path fill="#fbdfe3" d="m977 557 3 1c-2 2-2 2-3.812 2.75-2.491 1.239-2.491 1.239-4.563 4.313C969 568 969 568 965.688 568.875L963 569l1-7 5-1-2 4 2.082-1.785 2.73-2.278 2.708-2.285z"/><path fill="#0874c7" d="M651 325v2h-27v-2c3.562-.198 7.125-.381 10.688-.562l3.052-.17 2.96-.147 2.713-.143c2.655.023 5.007.418 7.587 1.022"/><path fill="#2c79b8" d="m790 414 1 2 40 1v1h-45z"/><path fill="#fee1e3" d="m986 540 3 2-15 15-1-3 3-1a70 70 0 0 0 1-4l2-1 .938-2c1.062-2 1.062-2 4.062-3z"/><path fill="#2478c0" d="m890 323 1 3c-3.407 3.608-6.87 6.276-11 9-1.369 1.297-2.717 2.618-4 4l-3-1q3.122-2.91 6.25-5.812l1.777-1.659c2.888-2.677 5.748-5.254 8.973-7.529"/><path fill="#6c6d71" d="m120 616 5 3-1 5 3 1c-5.415.37-5.415.37-8.375-1.5L117 622c1.875-4.875 1.875-4.875 3-6"/><path fill="#d3333d" d="m1199 376 2 1q-3.308 2.88-6.625 5.75l-1.871 1.633c-3.684 3.18-7.393 6.012-11.504 8.617v-3h2l.555-1.672c2.151-3.466 5.236-5.307 8.57-7.578l1.996-1.39c1.621-1.128 3.25-2.245 4.879-3.36"/><path fill="#d8f0fb" d="m512 723 25 8v1c-3.522.08-6.62.04-10-1v-2l-3.062.125c-4.119-.13-7.056-.858-10.938-2.125z"/><path fill="#2e7cbf" d="M853 570c1 2 1 2 .328 4.348l-1.078 2.715-1.047 2.722C850 582 850 582 847 583c-1.664.348-3.33.684-5 1 3.536-4.788 7.145-9.465 11-14"/><path fill="#dd232b" d="M1132 432v3c-2.406 2.262-2.406 2.262-5.5 4.688l-3.094 2.449L1121 444l-1-3h3l.313-2.812c.687-3.188.687-3.188 1.937-5.063 2.332-1.5 4.034-1.345 6.75-1.125"/><path fill="#2b7bbb" d="M712.875 219.684c3.355.5 6.739.694 10.121.937L725 221l1 2c-3.167-.14-6.333-.289-9.5-.437l-2.687-.12c-5.32-.254-10.539-.71-15.813-1.443v-1c5.111-.769 9.722-1.137 14.875-.316"/><path fill="#d6f2fb" d="M698 727v2l-6 1v2q-3.334.75-6.672 1.48c-1.762.394-3.516.823-5.265 1.27L678 735l-2-2q4.935-1.505 9.875-3l2.84-.867 2.715-.82c1.24-.378 1.24-.378 2.507-.762C696 727 696 727 698 727"/><path fill="#1f78c0" d="M815 643c-1.62 3.707-3.939 6.573-6.5 9.688l-2.406 2.949C804 658 804 658 802 659c-.365-5.478-.365-5.478 1.313-7.875C805 650 805 650 808 650v-2c4.524-5 4.524-5 7-5"/><path fill="#d72633" d="M1160 402c2 1 2 1 3.125 3.625-.125 3.375-.125 3.375-1.848 5.328A103 103 0 0 1 1155 416l-2-3c1.933-2.025 3.632-3.421 6-5l-4-2z"/><path fill="#ea1828" d="m918 633 2 1v4l-4 2v2c-3.75 1.125-3.75 1.125-6 0 3.537-7.326 3.537-7.326 8-9"/><path fill="#b8def4" d="M722 223c8.965.431 17.374 2.699 26 5v1q-3.5.061-7 0l-1-1a145 145 0 0 0-6.062-.562l-3.348-.254L728 227v-1l-6-2z"/><path fill="#d13440" d="m978 552 1 2 2 1-14 11-2-1z"/><path fill="#eefcfe" d="M462.118 347.598c2.706-.092 5.365-.032 8.07.09l2.85.068q3.482.089 6.962.244v1l-19 1-1 4-3 1v3h-2a123 123 0 0 1 2-5l.938-2.656C460 348 460 348 462.118 347.598"/><path fill="#fee6e4" d="m984 600 1 4c-6.5 4-6.5 4-11 4l-1 3-7 1c3.39-2.662 7.004-4.898 10.688-7.125 3.869-2.161 3.869-2.161 7.312-4.875"/><path fill="#fcb8b2" d="m1062 531 2 1v2l4 2v8h-5l1.5-1.375c1.726-1.501 1.726-1.501 1.5-3.625l-7-3z"/><path fill="#68696f" d="m212 595 1 7h-6l-1-5c3.75-2 3.75-2 6-2"/><path fill="#d1eefb" d="m878 364 2 1c-1 3-1 3-3 4l-1 3c-2.875 2.75-2.875 2.75-6 5l-3-1z"/><path fill="#edffff" d="M469 333c.563 1.938.563 1.938 1 4l-1 1 27 1v1h-30c2-5 2-5 3-7"/><path fill="#dcf5fd" d="m612 326 1 2 2 1q-2.682 2.008-5.375 4l-3.023 2.25C604 337 604 337 602 337v-2h2l1-5 7-1z"/><path fill="#f4f8fe" d="m584 308-2 3c-2.95.22-5.684.28-8.625.188l-2.43-.042A539 539 0 0 1 565 311v-2q3.062-.255 6.125-.5l3.445-.281c3.156-.202 6.27-.257 9.43-.219"/><path fill="#777a7f" d="m184 588 2 1-2 1.813c-2.337 2.062-2.337 2.062-2 5.187l2 1-2 13h-1l-.184-2.668-.254-3.52c-.08-1.148-.162-2.297-.246-3.48A66 66 0 0 0 179 592z"/><path fill="#d92d36" d="m1182 388 1 2h-2l-.312 2.375C1180 395 1180 395 1177 397c-3.187-.375-3.187-.375-6-1 3.277-3.67 6.715-5.693 11-8"/><path fill="#2074bb" d="m838 370 1 3-3 1-.75 1.75c-1.906 3.43-5.012 5.138-8.25 7.25l-2-1q2.402-2.441 4.813-4.875l2.707-2.742C835 372 835 372 838 370"/><path fill="#2c89cd" d="M423 658h6l-1 5 3 1-1 4a707 707 0 0 1-3.437-2.875l-1.934-1.617C423 662 423 662 422 660z"/><path fill="#d8202b" d="m1005 555 1 2a90 90 0 0 1-2 4v2c-3.435 2.29-4.985 2.178-9 2 2.97-4 6.13-6.921 10-10"/><path fill="#d52a33" d="M1065 504v3c-1.427 1.228-2.864 2.448-4.355 3.598-1.674 1.427-2.845 2.886-4.145 4.652-2.5 2.75-2.5 2.75-5.812 3.625L1048 519c3.41-3.51 6.94-6.682 10.75-9.75 3.22-2.517 3.22-2.517 6.25-5.25"/><path fill="#207fcd" d="m609 332 2 3h-2l-1 7-7-3c2.578-2.648 4.916-4.944 8-7"/><path fill="#727478" d="m486 614 2 4 3-2v5l-4 2-5-5z"/><path fill="#727379" d="m465 614 4 4c-.75 1.938-.75 1.938-2 4-2.125.75-2.125.75-4 1l-3-4 1.938-.812c2.393-1.075 2.393-1.075 3.062-4.188"/><path fill="#6e6f75" d="m613 605 5 3-2 1-.5 2-.5 2-2 1-.312-1.937L612 610l-3-1z"/><path fill="#5d5e67" d="M325 588h1v22l2 1-4 6c-1.093-3.278-.86-3.843 0-7 .144-1.732.246-3.467.316-5.203l.127-2.969.12-3.078.13-3.125q.159-3.812.307-7.625"/><path fill="#62656b" d="m491 594 3 1v5l-4 2-3-2c.313-1.875.313-1.875 1-4z"/><path fill="#fde3e2" d="m963 588 3 2-10 9c-1-3-1-3 0-6 2.063-.687 2.063-.687 4-1v-2z"/><path fill="#d7313d" d="m1116 432 2 1-1 3-3.437.813L1110 438c-1.531 3.006-1.531 3.006-2 6h-2v-2l-4 1c2.857-3.017 5.823-5.406 9.25-7.75l2.703-1.86z"/><path fill="#d7f1fc" d="m802 619 3 1c-3.932 5.327-8.38 8.548-14 12v-3h2v-2l2.875-.687c3.31-.996 3.31-.996 4.438-3.875L801 620z"/><path fill="#232e3e" d="M465 502c2 3 2 3 2 5-1.375 1.625-1.375 1.625-3 3h-2l-.937 2.375C460 515 460 515 459 517h-2c1.373-3.699 3.064-6.951 5.125-10.312l1.633-2.676z"/><path fill="#fcd8dc" d="m910 648 1 3-3.25 1.313c-2.343.985-3.928 1.83-5.937 3.437L900 657c-2.113-.422-2.113-.422-4-1q2.932-2.008 5.875-4l3.305-2.25C908 648 908 648 910 648"/><path fill="#fddfda" d="m980 578-10 9c-1-3-1-3 .188-5.562 3.14-4.223 4.666-4.724 9.812-3.438"/><path fill="#fddadb" d="m1056 509 3 1-13 11-1-3 3-1 1-2c1.875-2.125 1.875-2.125 4-4h3z"/><path fill="#dd2935" d="m1074 497 4 2h-2l-.937 1.938C1074 503 1074 503 1073 504c-2 .04-4 .043-6 0z"/><path fill="#fddad9" d="m1010 576 2 1c-2.862 6.133-6.918 7.635-13 10 3.187-4.334 6.864-7.619 11-11"/><path fill="#fdd8db" d="m1063 490 2 1-1 5-2.187-.312c-3.933.436-5.276 2.413-7.813 5.312l-3-1z"/><path fill="#2b7dbe" d="M632 362c2.875 2.5 2.875 2.5 5 5l-5 1v-3h-11c3.274-3.274 6.534-3.536 11-3"/><path fill="#3783c2" d="M681 315c2.219 1.523 2.219 1.523 4 3l-2.047-.035c-.892-.01-1.784-.018-2.703-.027l-2.672-.036c-2.36.09-4.323.429-6.578 1.098v3h-2c.356-2.581.833-3.82 2.625-5.75 3.312-1.743 5.683-1.646 9.375-1.25"/><path fill="#d7f3fd" d="m718 280 1 2a78 78 0 0 0 5 2l-1 2-3.187-.625c-3.81-.375-5.481-.091-8.813 1.625.386-2.798.801-3.82 2.938-5.75C716 280 716 280 718 280"/><path fill="#2d7ec3" d="m764 650 2 1c-1.062 2.375-1.062 2.375-3 5-3.375 1.25-3.375 1.25-7 2l-2.937.625L751 659c2.849-2.176 5.76-4.21 8.75-6.187l2.422-1.606z"/><path fill="#fddadf" d="m930 616 4 2-10 9-1-3h2l.25-1.75c.955-2.866 2.535-4.25 4.75-6.25"/><path fill="#707479" d="m127 601 4 2v2l-5 1v2c-2.437-.375-2.437-.375-5-1l-1-2 2.938-.875c3.169-.767 3.169-.767 4.062-3.125"/><path fill="#e9eef4" d="m146 462 4 1-1.023 1.39c-3.34 4.592-3.34 4.592-5.977 9.61-.37-7.385-.37-7.385 1.5-10.5z"/><path fill="#fee0db" d="M1048 451c1.938.313 1.938.313 4 1l1 3c1.401 1.429 1.401 1.429 3.063 2.688L1059 460l-1 3-5-5-2.812-2.687C1048 453 1048 453 1048 451"/><path fill="#d52d37" d="m1096 446 1 3-3 1v2l-2.812.813c-2.95 1.098-4.244 1.811-6.188 4.187l-3-1z"/><path fill="#d5f2fb" d="m798 403 3 1c-3.804 3.92-7.816 7.491-12 11l-1-3h3l.813-1.937C793 408 793 408 796 407l1-3z"/><path fill="#cfedf9" d="m919 319 1 2c-1.433 2.729-2.817 4.817-5 7h-3l-1 3-2-1 4.438-4.937 2.496-2.778C918 320 918 320 919 319"/><path fill="#d22e3a" d="M1110 523c4.252 4.123 8.136 8.513 12 13l-2 1c-3.438-2.292-4.788-4.544-7-8l-1.75-2.25C1110 525 1110 525 1110 523"/><path fill="#b8ddf5" d="m513 531-2.937 1.375c-3.134 1.283-3.134 1.283-4.063 3.625-2.941.414-2.941.414-6.562.625l-3.63.227L493 537c3.363-2.242 6.763-3.426 10.563-4.687l2.076-.721c5.119-1.713 5.119-1.713 7.361-.592"/><path fill="#de262f" d="m1017 511 2 4-1.812.688c-2.752 1.65-3.713 3.51-5.188 6.312l-4-1 1.46-1.426c.633-.622 1.264-1.245 1.915-1.886l1.898-1.864c1.908-1.912 1.908-1.912 3.727-4.824"/><path fill="#2f3546" d="M258 504h2c1.807 4.624 2.218 8.425 2.125 13.375l-.055 3.773L262 524h-1l-1-11h-1z"/><path fill="#e1f5fd" d="m620 380 1.5 1c3.61 1.444 6.613 1.123 10.5 1h3c-1 1.5-1 1.5-3 3-4.574.363-8.064.624-12-2z"/><path fill="#e0f4fd" d="M938 299v3l-2 2c-.643 2.069-.643 2.069-1 4h-3v3l-4-2z"/><path fill="#2a80c4" d="m723 285-2 2-3.5-.062-3.5.062-2 3h-2v2h-2c.063-1.75.063-1.75 1-4 5.04-3.73 7.707-4.541 14-3"/><path fill="#2381c8" d="m983 245 3 1c-.875 4.75-.875 4.75-2 7l-4-2c.573-2.867.861-3.861 3-6"/><path fill="#2177bf" d="M763 217c3.012.644 5.517 1.65 8.25 3.063l2.14 1.097 1.61.84c-3.917 1.17-6.98.696-11 0z"/><path fill="#d2eef9" d="m786 674 2 1-1 2h-2l-1 4h-2v2l-3 1-2-2z"/><path fill="#fcd0d2" d="M1058 547v2c-1.793 1.508-1.793 1.508-4.187 3.125l-2.356 1.633c-2.728 1.379-4.443 1.488-7.457 1.242 3.326-3.88 8.652-8 14-8"/><path fill="#e8eeef" d="M505.313 436.188 507 437l-8 8c-.812-1.687-.812-1.687-1-4 3.955-5.085 3.955-5.085 7.313-4.812"/><path fill="#2a83cf" d="m443 274 3 2c-2.052 2.248-3.007 3.002-6 4-1.699 2.498-1.699 2.498-3 5l-2-3z"/><path fill="#4383ba" d="M830 260q1.913 1.366 3.813 2.75l2.144 1.547c2.073 1.728 3.517 3.488 5.043 5.703-4.776-1.642-8.794-4.265-13-7l2-1z"/><path fill="#cfecfb" d="M510 672c2.938.375 2.938.375 6 1l1 2c3.03.658 3.03.658 6 1l1 4c-5.235-1.44-9.63-3.817-14-7z"/><path fill="#e31a28" d="m899 649 3 1c-1.187 2.5-1.187 2.5-3 5-2.687.313-2.687.313-5 0v2l-3-1c1-2 1-2 3.438-2.937 2.86-.908 2.86-.908 4.562-4.063"/><path fill="#fdcfce" d="M1078 539c4.953 3.773 8.437 7.908 12 13a56.5 56.5 0 0 1-7-4v-3l-4-1z"/><path fill="#3f89c4" d="m546 531 4 5-1 2-13-4c3.836-.959 5.324-.919 9 0z"/><path fill="#fde0db" d="m1068 499 2 2a819 819 0 0 1-4.375 4l-2.46 2.25C1061 509 1061 509 1059 509c.313-1.875.313-1.875 1-4 3-2 3-2 6-2z"/><path fill="#cfeefb" d="M889 352c0 3.282-.478 5.109-2 8-2 .625-2 .625-4 1l-2 3-2-1 4.438-4.937 2.496-2.778C888 353 888 353 889 352"/><path fill="#d7f2fc" d="M669 332c1.02.743 1.02.743 2.063 1.5 3.62 1.848 5.913 1.86 9.937 1.5 2.834-.897 2.834-.897 5-2l-2 4c-1.916.081-3.833.14-5.75.188l-3.234.105c-3.316-.322-4.606-1.064-7.016-3.293z"/><path fill="#d9f1fb" d="m512 284 2 1c-2.462 5.662-2.462 5.662-5.187 7.375L507 293l-2-2z"/><path fill="#d5f2fb" d="m550 258-1 3h-2v3c-5.75 1.125-5.75 1.125-8 0a783 783 0 0 1 4.375-3l2.46-1.687C548 258 548 258 550 258"/><path fill="#fdd6d6" d="m921 639 2 1c-1.706 2.784-2.476 3.854-5.687 4.75L915 645l-1 3-4-1z"/><path fill="#5f6165" d="m489 610 1 2h3c-.187 1.813-.187 1.813-1 4-2.562 1.75-2.562 1.75-5 3-1-3-1-3 .438-6.187.515-.929 1.03-1.857 1.562-2.813"/><path fill="#bee4f7" d="M851 577c1.144 3.981.945 6.93 0 11-2.062 2.438-2.062 2.438-4 4-1-2-1-2-.004-5.04l1.442-3.585 1.433-3.602z"/><path fill="#303546" d="M785 434v22h-1l-1-19-3-1c3-2 3-2 5-2"/><path fill="#1171bf" d="m979 249 2 1c.625 2.063.625 2.063 1 4l-6 5c-.366-4.273.592-6.488 3-10"/><path fill="#196fbb" d="M715 717h3v2a336 336 0 0 1-4.75 2.063l-2.672 1.16c-2.73.823-3.947.754-6.578-.223l1-2c2.031-.598 2.031-.598 4.5-1.062 3.038-.397 3.038-.397 5.5-1.938"/><path fill="#d9f3fb" d="M810 650c1 3 1 3 .188 5.063C809 657 809 657 807 659l-4-1z"/><path fill="#fcd9d5" d="m1022 536 4 2-8 7-2-4 3 1 .938-2.437C1021 537 1021 537 1022 536"/><path fill="#fedada" d="m1041 521 4 1-11 9-1-3h2v-2h3l.938-1.937C1040 522 1040 522 1041 521"/><path fill="#202640" d="M545 452c4.429 5.143 4.429 5.143 5 9l-6-2c-.043-2-.04-4 0-6z"/><path fill="#2f7fc4" d="m848 360 2 1-2 3v4h-2v-2l-5 4-2-1z"/><path fill="#e7fbfe" d="m504 292 4 1c-1.687 2.5-1.687 2.5-4 5-2.75.313-2.75.313-5 0z"/><path fill="#277cc0" d="m977 250 2 1-.937 2.188c-.989 2.615-1.592 5.063-2.063 7.812l-3 1v-2h2v-5l-4 1z"/><path fill="#dc2a31" d="M953 600h2c0 4 0 4-1.187 5.75-2.372 1.635-3.994 1.479-6.813 1.25a418 418 0 0 1 2.875-3.5l1.617-1.969z"/><path fill="#d5252a" d="M1024 539c1 3 1 3 .063 5.188L1023 546l-1-2-2.375 1.563L1017 547l-2-1z"/><path fill="#fdd6d6" d="m1165 406 2 1c-.258 1.86-.258 1.86-1 4-1.742 1.266-1.742 1.266-3.875 2.25l-2.117 1.016C1158 415 1158 415 1155 415z"/><path fill="#1a77cb" d="m581 312 7 1-4 4-6-2 3-1z"/><path fill="#1077d3" d="M816 307h9v3h-9z"/><path fill="#d1edfb" d="M574 245v2a132 132 0 0 1-5 3l-2 2c-2.625-.375-2.625-.375-5-1 3.595-3.082 7.067-6 12-6"/><path fill="#086cbf" d="M805 244c2.929.628 5.361 1.586 8 3h-4v2l-7-1 2-1z"/><path fill="#1c74b8" d="M749 211c4.389.665 7.981 2.188 12 4l-1 2-8-1v-3h-3z"/><path fill="#478fcc" d="M702 196c5.239.551 9.974 1.43 15 3v1l-13-1v-2z"/><path fill="#237bbf" d="M521 725c4.485.656 8.67 1.7 13 3l-1 2q-2.157-.466-4.312-.937l-2.426-.528C524 728 524 728 521 727z"/><path fill="#fee1e3" d="m896 647 2 2-4 2v2l-4 2-2-2 4-1v-3z"/><path fill="#d82235" d="m987 571 1 2c-3.336 4.513-5.333 6.682-11 8 3.079-3.87 6-7.03 10-10"/><path fill="#d32932" d="m1062 537 5 2c-1.098 2.993-1.677 3.846-4.625 5.25L1060 545v-3h3z"/><path fill="#3783bf" d="M620 376h2l1 3 3 1v2h6v1c-7.262.615-7.262.615-11-2.5l-2-2.5z"/><path fill="#2780c3" d="m470 370 2 1-1 3h3c-1 3-1 3-3.062 4.188L469 379v-5l-2-1z"/><path fill="#c5e5f8" d="M732 204c6.625-.125 6.625-.125 10 1v2h5l-1 2a799 799 0 0 1-5.312-1.375l-2.989-.773C735 206 735 206 732 204"/><path fill="#d2f0fb" d="M714 198c5.925.34 10.872.713 16 4l1 2-1.687-.586A164 164 0 0 0 714 199z"/><path fill="#d82534" d="m1030 512 4 1c-2.808 2.964-5.183 5.445-9 7v-4h4z"/><path fill="#dbdde4" d="M506 489c.553 2.076 1 3.844 1 6-4.318 4.66-4.318 4.66-7 6 1.319-4.615 3.214-8.099 6-12"/><path fill="#fde8e8" d="M1086 472c0 3.204-.743 5.094-2 8l-2-1-1 1-2-1c4.75-5.875 4.75-5.875 7-7"/><path fill="#d2232e" d="M1114 444h4c-1.491 3.795-3.757 5.61-7 8l-1-2c1.75-3 1.75-3 4-6"/><path fill="#fed4db" d="M1191 384c0 3 0 3-1.39 4.79l-1.86 1.835-1.828 1.852c-2.016 1.597-3.41 2.112-5.922 2.523 3.187-4.334 6.864-7.619 11-11"/><path fill="#dff4fc" d="m492 304 1 2-1 3h4v2h-8a56.5 56.5 0 0 1 4-7"/><path fill="#fedde3" d="m885 656 4 1-8 7-1-4c2.25-2.062 2.25-2.062 5-4"/><path fill="#d9f4fd" d="m758 655-11 6 1-4h4v-2c2-1 2-1 6 0"/><path fill="#dee5e8" d="M923 523c1.065 3.196 1.194 3.97 0 7-2.062 2.25-2.062 2.25-4 4 0-5.043 1.402-6.78 4-11"/><path fill="#fdd1d3" d="m1048 502 2 1c-3.648 5.084-5.852 6.794-12 8 3.17-3.26 6.4-6.222 10-9"/><path fill="#c6eafb" d="M841 405c1 2 1 2 .313 4.5-1.496 2.848-2.432 3.292-5.313 4.5l-1 2h-2c1.364-2.992 2.95-5.29 5.125-7.75l1.633-1.86z"/><path fill="#ccedfa" d="m814 388 3 2-8 7-1-3h3l.375-2.437L812 389z"/><path fill="#c2e7f9" d="M375 375h2a716 716 0 0 1-1.375 4.813l-.773 2.707C374 385 374 385 372 388l-1-4h2l-.125-2.812C373 378 373 378 375 375"/><path fill="#ccecfc" d="m478 321 1 2a348 348 0 0 1-2.812 4.5l-1.583 2.531L473 332h-3z"/><path fill="#0e75d1" d="M651 325v2l-16-1v-1q2.592-.294 5.188-.562l2.917-.317c2.837-.119 5.15.201 7.895.879"/><path fill="#dcf5fc" d="M675 313h9l1 4-11-2z"/><path fill="#d7f3fd" d="m953 265 3 1c-2.65 3.63-5.018 5.899-9 8l1-4h3z"/><path fill="#c9e6f6" d="M997 238c1 2 1 2 1 3.875-1.67 3.547-4.514 4.474-8 6.125l-2-1z"/><path fill="#cdedfb" d="M602 235h-2v2h-6l-1 3-4-2c1.41-.702 2.828-1.386 4.25-2.062l2.39-1.16c2.62-.864 3.809-.708 6.36.222"/><path fill="#2279c4" d="M734 706h8c-2.853 2.325-5.54 3.75-9 5z"/><path fill="#66666c" d="M595 588h5l-2 3 3 2-4 2-1-3-2-1z"/><path fill="#fcced8" d="M1153 416c1 2 1 2 .438 3.938-2.003 2.873-4.224 3.79-7.438 5.062l-2-1z"/><path fill="#e52c3f" d="m1160 402 2 1c.625 2.563.625 2.563 1 5l-8-1z"/><path fill="#b4e2fb" d="m442 385 4 4-5 4-2-1z"/><path fill="#ceedfb" d="m467 380 2 1v3h-5v2l-5 1c2.578-2.648 4.916-4.944 8-7"/><path fill="#e0f4fb" d="m832 376-6 5-2-1v-2h2v-2c2.49-1.245 3.41-.777 6 0"/><path fill="#d2f1fd" d="M501 227h3v2l-10 5v-3c3-2 3-2 7-2z"/><path fill="#5f6369" d="M212 611c.93 2.606 1.15 3.642.063 6.25L211 619h-2l-2-5 1.938-.375L211 613z"/><path fill="#126cbb" d="M830 597h2c-1.289 2.875-2.533 5.007-5 7a77 77 0 0 1-4 1l2.938-3.437 1.652-1.934A50 50 0 0 1 830 597"/><path fill="#daf5fd" d="m845 576 3 1-6 7-1-3c1.938-2.687 1.938-2.687 4-5"/><path fill="#e01e2e" d="m1029 534 2 4-6 4c.498-3.688 1.1-5.605 4-8"/><path fill="#d92f3e" d="M1044 523v2h-2l-1 4c-2.49.687-4.379 1-7 1a640 640 0 0 1 3.875-3.5l2.18-1.969C1042 523 1042 523 1044 523"/><path fill="#df2c33" d="M1083 470h4c-1.333 4-3.496 4.838-7 7v-4h2z"/><path fill="#fee0dd" d="M1037 439c5.662 1.477 5.662 1.477 7.375 4.125L1045 445l-2 2z"/><path fill="#ce6369" d="m1199 376 2 1a242 242 0 0 1-3.75 3.563l-2.11 2.003L1193 384l-4-1z"/><path fill="#247bbd" d="M793 233c3.937 1.312 6.227 2.92 9 6l-4 1v-2h-2c-1.625-1.375-1.625-1.375-3-3z"/><path fill="#cd5d64" d="m876 667 1 3-8 6-2-1z"/><path fill="#737378" d="m591 618 1 3c2.015.733 2.015.733 4 1v3c-2.437-.75-2.437-.75-5-2-.875-2.062-.875-2.062-1-4z"/><path fill="#fcdedf" d="m1124 536 4 1 1 7c-2.5-2.312-2.5-2.312-5-5z"/><path fill="#f9ccca" d="m1064 535 4 1v8h-5l1.5-1.187c1.956-2.364 1.742-3.827 1.5-6.813z"/><path fill="#fddcdb" d="m1034 489 2 1c-1.27 3.914-2.512 5.79-6 8l-1-3 1.938-.75c2.25-1.066 2.25-1.066 2.812-3.375z"/><path fill="#d22a34" d="M993 441c2.884 1.293 4.872 2.66 7 5l-1 3a376 376 0 0 1-3-2.875l-1.687-1.617C993 443 993 443 993 441"/><path fill="#d92731" d="m1130 423 2 1c-1 3-1 3-2.812 4.25C1127 429 1127 429 1123 428z"/><path fill="#caebf8" d="M460 348c1 3 1 3 .063 5.188L459 355h-2v3h-2c1.335-3.594 2.96-6.755 5-10"/><path fill="#d4edfa" d="M689 323c2 1 2 1 2.875 2.75.125 2.25.125 2.25-1.812 5L688 333l-2-1z"/><path fill="#d1eafa" d="m921 297-8 6v-3h2v-3c2-1 2-1 6 0"/><path fill="#297bbe" d="M930 288c0 3 0 3-2.5 5.688L925 296l-3-1z"/><path fill="#c7e5f5" d="m972 263 2 4h-2v2l-6 1z"/><path fill="#2677bc" d="m784 239 8 1 1 4-9-3z"/><path fill="#4e8abd" d="m1005 229 2 1-7 7-3-2z"/><path fill="#bce1f8" d="M674 735h-2v2h-10c7.13-3.565 7.13-3.565 12-2"/><path fill="#fcc9cb" d="m895 657 1 2c-4.297 4.004-4.297 4.004-6 5l-4-1z"/><path fill="#72767a" d="M598 603c2.125.375 2.125.375 4 1h-2l1 3-5 1c0-3 0-3 2-5"/><path fill="#d91e26" d="m961 595 3 1-1 3-2-1-1 2-4-2c2.313-1.562 2.313-1.562 5-3"/><path fill="#787780" d="m143 589 3 1-2 6-3-1c0-4 0-4 2-6"/><path fill="#e8141f" d="M998 532h4v5l-5-1z"/><path fill="#d0d6dc" d="m512 479 2 4c-4.75 4.875-4.75 4.875-7 6 1.335-3.594 2.96-6.755 5-10"/><path fill="#fddcda" d="m1114 449 1 3c-2.312 2.063-2.312 2.063-5 4l-3-1z"/><path fill="#fddadc" d="M1143 425c0 3.52-.704 4.439-3 7h-5z"/><path fill="#2378c0" d="M450 385c2.504.835 4.668 1.794 7 3-1.375 1.5-1.375 1.5-3 3h-2l-1-3-2-2z"/><path fill="#3686ca" d="M461 378v3l-5 1v2l-5 1c6.759-7 6.759-7 10-7"/><path fill="#c8e8f9" d="m855 352 3 1-8 7-1-3h2l1-3h3z"/><path fill="#3285c7" d="m393 339 2 3-2 4h-2v2l-2-1z"/><path fill="#daf2fa" d="m894 320-7 6 1-6c3.75-1.125 3.75-1.125 6 0"/><path fill="#d2eefc" d="m819 250 8 2v5a962 962 0 0 1-4-2.937l-2.25-1.653L819 251z"/><path fill="#1a72bd" d="m988 242 2 1c-.312 1.875-.312 1.875-1 4l-3 2-1-5z"/><path fill="#1a75bb" d="m724 712 4 2-9 4-1-3h5z"/><path fill="#dcf4fe" d="m429 668 7 6-2 2c-2.5-2.312-2.5-2.312-5-5z"/><path fill="#247ac2" d="M789 668h3c-1.049 2.622-1.65 3.794-4.125 5.25L786 674v-3h2z"/><path fill="#2b7bc2" d="M749 659c2.313.813 2.313.813 4 2h-2l-1 2c-1.937.75-1.937.75-4 1l-2-2c2.25-1.625 2.25-1.625 5-3"/><path fill="#1d81ce" d="M423 658h6l-3 4-4-1z"/><path fill="#257cc4" d="m784 637 1 2 2 1c-4.43 2.092-4.43 2.092-7.312 1.625L778 641z"/><path fill="#337dbc" d="M817 609h2v2l-2 1v3l-6 1a418 418 0 0 1 2.875-3.5l1.617-1.969z"/><path fill="#fdd6d1" d="m975 606 1 2h-2l-1 3-7 1c2.88-2.24 5.849-4.162 9-6"/><path fill="#2a79bc" d="M838 604h2c-1.335 3.594-2.96 6.755-5 10l-1-2c.777-1.945.777-1.945 1.938-4.125l1.152-2.195z"/><path fill="#fee3e1" d="m1010 532 1 4-5 2v-3c2-1.687 2-1.687 4-3"/><path fill="#d8dae0" d="m495 507 2 2c-1.312 2.938-1.312 2.938-3 6l-3 1c1.059-3.403 2.009-6.014 4-9"/><path fill="#de2532" d="m1100 443 4 1v4l-6-2z"/><path fill="#253041" d="m504 439 2 1-3.809 4.492c-1.279 1.514-1.279 1.514-2.191 3.508h-2c1.312-3.937 2.92-6.227 6-9"/><path fill="#d72c33" d="M1028 432c3.255.349 4.019 1.021 6.25 3.563L1036 438l-2 1-1-2-2-.937c-2-1.063-2-1.063-3-4.063"/><path fill="#fee1d7" d="M1146 412c-2.363 2.526-3.665 3.888-7 5v-4c2.463-1.231 4.28-1.072 7-1"/><path fill="#da1824" d="M1162 402c2.063.438 2.063.438 4 1-.375 1.938-.375 1.938-1 4l-2 1-2-5z"/><path fill="#157fd7" d="M456 382h3v3h-3v2l-4-1 1-2h3z"/><path fill="#cdeffa" d="M927 310c0 4.246-1.818 6.385-4 10l-3-1q1.467-1.97 2.938-3.937l1.652-2.215C926 311 926 311 927 310"/><path fill="#dbf4fb" d="m584 308-2 3c-3.125.188-3.125.188-6 0v-2c2.709-1.354 5.01-1.065 8-1"/><path fill="#daf1fc" d="M498 298c1.125 3.75 1.125 3.75 0 6h-5z"/><path fill="#d7eefa" d="M931.563 284.938 934 285c-4.75 4.875-4.75 4.875-7 6 1.073-5.977 1.073-5.977 4.563-6.062"/><path fill="#bae0f8" d="m630 226-1 3h-11c4.12-2.747 7.077-3 12-3"/><path fill="#ceeffa" d="m502 667 7 1 1 4c-3.375-1.186-5.647-2.276-8-5"/><path fill="#d0ebf8" d="M824 597h6l-5 5z"/><path fill="#fedade" d="M998 587c0 3.576-1.088 5.053-3 8l-3-2z"/><path fill="#c95964" d="m972 558 1 3-6 5-2-1z"/><path fill="#fbc9cc" d="m1040 557-1 4-7 1c4.839-5 4.839-5 8-5"/><path fill="#1c2838" d="m491 458 1 2 2 1c-2.294 2.524-3.765 3.383-7 5z"/><path fill="#e32f37" d="M1106 439c2.25.25 2.25.25 4 1l-2 4h-2v-2l-4 1c1.75-2.062 1.75-2.062 4-4"/><path fill="#e3f6fd" d="M816 384h6l-5 5z"/><path fill="#e1f3fb" d="M627 360h8l1 5-9-3z"/><path fill="#dcf3fd" d="m866 345-6 5v-5c3-1 3-1 6 0"/><path fill="#d4eaf7" d="m905 305 4 2-6 5c.875-4.75.875-4.75 2-7"/><path fill="#2277c2" d="m937 282 1 4h-3l-1 4v-2l-3-1z"/><path fill="#d1eefa" d="m556 253 2 1-2 3h-2v2l-4-2z"/><path fill="#d1edfb" d="m988 239 4 1-7 5-3-2h4z"/><path fill="#cbebfb" d="m706 723 2 1c-1.625 2.063-1.625 2.063-4 4-3.25-.25-3.25-.25-6-1l4-2 2.125-1.187z"/><path fill="#2076bd" d="m774 680 4 2-5 4-1-3z"/><path fill="#d7effb" d="m801 660 2 1v2c-1.812 1.688-1.812 1.688-4 3l-3-1z"/><path fill="#c3e7f9" d="m826 628 1 2c-1.25 3.063-1.25 3.063-3 6l-3 1c1.25-3.46 2.675-6.147 5-9"/><path fill="#e01618" d="M927 630h4l-1 4-5-1 2-1z"/><path fill="#fccecf" d="M949 622v2l-3 1-1 3-4-2c5.75-4 5.75-4 8-4"/><path fill="#fecdd2" d="m955 617 2 1-1 3h-4l-1 2-2-2z"/><path fill="#787980" d="M470.188 587.375 472 588h-3v2l-4 2v-3c3-2 3-2 5.188-1.625M462 591l2 1Z"/><path fill="#e32c39" d="m1001 578 2 2 2-2 2 2-5 3-2-4z"/><path fill="#d22830" d="m982 548 2 4-2 2h-3c.573-2.867.861-3.861 3-6"/><path fill="#d2d8dd" d="m913 540 2 4-6 4c1.125-2.972 2.223-5.334 4-8"/><path fill="#fed6d7" d="m986 540 3 2-6 5c.613-2.962 1.254-4.38 3-7"/><path fill="#263145" d="M126 536c1 2 1 2 .313 4.563L125 543l-4 1z"/><path fill="#3281c5" d="m499 523 1 2c-.777 1.727-.777 1.727-1.937 3.625L496 532h-2c1.25-3.46 2.675-6.147 5-9"/><path fill="#19263c" d="m557 524 3 1-1 5-3-3z"/><path fill="#1d75bc" d="M535 516c4.875 4.75 4.875 4.75 6 7l-5-1z"/><path fill="#ed1c2f" d="m1063 508 1 2c-1.437 2.625-1.437 2.625-3 5l-2-4z"/><path fill="#fbdfd4" d="m1097 504 3 1v6l-4-4z"/><path fill="#fedfde" d="M1022 475c4.875 4.75 4.875 4.75 6 7l-2 2-1-4h-2z"/><path fill="#e1e9ec" d="m314 470 4 2-3 4-3-1z"/><path fill="#fbd1d1" d="M1001 452c3.736 1.245 4.188 2.634 6 6h-3v-2l-3-1z"/><path fill="#fcdfdf" d="m1108 435 3 2-7 4v-4z"/><path fill="#fed9db" d="m1120 426 1 2 2 1-8 4v-2h2l1-3z"/><path fill="#d92933" d="m1140 416 2 1-1 2h-2l-1 3-3-1z"/><path fill="#fbd7d6" d="m1172 400 2 1-2 5-4-2z"/><path fill="#2275b9" d="M820 386h2c-.125 1.875-.125 1.875-1 4-3.062 1.25-3.062 1.25-6 2a159 159 0 0 1 5-6"/><path fill="#197dd1" d="m462 376 2 1v5l-4-1z"/><path fill="#cef0fb" d="M469 333c.563 1.938.563 1.938 1 4l-1 1 3 2h-6c1.875-4.75 1.875-4.75 3-7"/><path fill="#0d6fca" d="m615 329 3 1v2l-3 2-3-1z"/><path fill="#c7deec" d="M835 267c3.403 1.059 6.014 2.009 9 4l-1 2-6-2v-2h-2z"/><path fill="#d2ebf5" d="m987 248 1 2 2 1h-2l-1 3-3-1c1.875-3.875 1.875-3.875 3-5"/></svg>